<?xml version="1.0" encoding="UTF-8" standalone="no"?>
<!-- Uploaded to: SVG Repo, www.svgrepo.com, Transformed by: SVG Repo Mixer Tools -->

<svg
   height="800px"
   width="800px"
   version="1.1"
   id="Layer_1"
   viewBox="-51.2 -51.2 614.40 614.40"
   xml:space="preserve"
   fill="#000000"
   sodipodi:docname="error.svg"
   inkscape:version="1.2.2 (b0a8486541, 2022-12-01)"
   xmlns:inkscape="http://www.inkscape.org/namespaces/inkscape"
   xmlns:sodipodi="http://sodipodi.sourceforge.net/DTD/sodipodi-0.dtd"
   xmlns="http://www.w3.org/2000/svg"
   xmlns:svg="http://www.w3.org/2000/svg"><defs
   id="defs80" /><sodipodi:namedview
   id="namedview78"
   pagecolor="#ffffff"
   bordercolor="#000000"
   borderopacity="0.25"
   inkscape:showpageshadow="2"
   inkscape:pageopacity="0.0"
   inkscape:pagecheckerboard="0"
   inkscape:deskcolor="#d1d1d1"
   showgrid="false"
   inkscape:zoom="0.59514011"
   inkscape:cx="780.48847"
   inkscape:cy="409.98749"
   inkscape:window-width="1920"
   inkscape:window-height="1011"
   inkscape:window-x="0"
   inkscape:window-y="0"
   inkscape:window-maximized="1"
   inkscape:current-layer="Layer_1" />

<g
   id="SVGRepo_bgCarrier"
   stroke-width="0">

<path
   transform="translate(-51.2, -51.2), scale(19.2)"
   d="M16,31.358275016148884C19.912410179555955,31.556617996009912,23.196319291468242,28.73485750682639,25.900049978118357,25.90004997811836C28.525995313202426,23.146798834197984,30.717255926437915,19.804103425315926,30.648133615652718,16C30.579990450269843,12.249783233514503,28.465038866013106,8.80958106522613,25.546693691652443,6.453306308347559C22.9003878006574,4.316676335747861,19.398450373823795,4.036489849749834,16,4.173082547883194C12.775935305353396,4.302666224899722,9.728176244537897,5.197461667896956,7.191067417930627,7.1910674179306255C4.2493792187111925,9.502582969517116,0.9774002404580209,12.258901882834088,0.9487910742561034,15.999999999999996C0.9200919980369886,19.752855264986263,4.42848438130536,22.264292184472474,7.055300702053149,24.944699297946848C9.724817816479021,27.66867836208321,12.190919509610561,31.165170423245463,16,31.358275016148884"
   fill="#7ed0ec"
   strokewidth="0"
   id="path58" />

</g>

<g
   id="SVGRepo_tracerCarrier"
   stroke-linecap="round"
   stroke-linejoin="round" />

<g
   id="SVGRepo_iconCarrier"> <path
   style="fill:#AA3E51;"
   d="M118.333,464.218c21.733,21.733,56.97,21.733,78.704,0l28.513-28.513 c-21.865-22.024-48.578-53.931-67.129-73.224L118.333,464.218z"
   id="path62" /> <path
   style="fill:#05232E;"
   d="M303.502,66.783h127.244L370.285,0C333.402,0,303.502,29.9,303.502,66.783z"
   id="path64" /> <path
   style="fill:#FAE8AC;"
   d="M493.077,122.805L459.328,11.942C446.225,4.361,431.029,0,414.807,0h-44.522v122.435 C419.463,122.435,448.555,122.805,493.077,122.805z"
   id="path66" /> <path
   style="fill:#F72349;"
   d="M459.341,11.92c-0.012,0.022-0.012,21.472-0.012,21.472c0,49.179-39.866,89.043-89.043,89.043v75.51 c0,104.432-70.877,148.106-214.968,148.106l-31.48,31.481L8.147,495.699c21.733,21.732,56.97,21.732,78.704,0l82.879-82.881 c17.272,10.016,36.009,17.784,55.819,22.885c17.8,4.585,36.461,7.024,55.692,7.024c122.943,0,222.609-99.665,222.609-222.609V89.043 C503.85,56.09,485.949,27.317,459.341,11.92z"
   id="path68" /> <path
   style="fill:#F6D76F;"
   d="M415.905,303.861L281.24,220.122l-9.377,9.377l-92.939,92.939c0,41.527,65.262,60.078,102.315,60.078 C318.295,382.515,402.992,343.904,415.905,303.861z"
   id="path70" /> <path
   style="fill:#16A5D9;"
   d="M310.375,395.816c35.44-5.846,69.455-22.43,96.791-49.768c0,0,8.971-22.664,2.803-28.832 c-5.611-5.611-26.414,5.221-26.414,5.221c-56.417,56.415-148.214,56.416-204.631,0l-23.61,23.611 c10.592,10.592,22.189,19.56,34.478,26.923C226.484,394.962,269.382,402.578,310.375,395.816z"
   id="path72" /> <path
   style="fill:#FB5858;"
   d="M407.168,346.047c34.774-34.774,34.774-91.153,0-125.926c-10.674-10.674-23.387-18.057-36.883-22.177 c-30.471-9.304-64.944-1.923-89.043,22.176C281.241,220.122,407.168,346.047,407.168,346.047z"
   id="path74" /> </g>

<ellipse
   style="fill:#05232e;stroke-width:0.768;fill-opacity:1"
   id="path1644"
   cx="419.90894"
   cy="26.77545"
   rx="11.469053"
   ry="14.961637" /><ellipse
   style="fill:#fae8ac;fill-opacity:1;stroke-width:0.282612"
   id="path1644-3"
   cx="417.90631"
   cy="23.01454"
   rx="4.3498912"
   ry="5.3417687" /><rect
   style="fill:#05232e;fill-opacity:1;stroke-width:1.00119"
   id="rect1577"
   width="30.225958"
   height="7.3339028"
   x="382.02759"
   y="132.06393"
   ry="0"
   transform="rotate(-16.780868)" /></svg>
