<!DOCTYPE svg PUBLIC "-//W3C//DTD SVG 1.1//EN" "http://www.w3.org/Graphics/SVG/1.1/DTD/svg11.dtd">
<!-- Uploaded to: SVG Repo, www.svgrepo.com, Transformed by: SVG Repo Mixer Tools -->
<svg height="800px" width="800px" version="1.1" id="Layer_1" xmlns="http://www.w3.org/2000/svg" xmlns:xlink="http://www.w3.org/1999/xlink" viewBox="0 0 512 512" xml:space="preserve" fill="#000000">

<g id="SVGRepo_bgCarrier" stroke-width="0"/>

<g id="SVGRepo_tracerCarrier" stroke-linecap="round" stroke-linejoin="round"/>

<g id="SVGRepo_iconCarrier"> <path style="fill:#fb5858ff;" d="M413.438,264.791l33.785-33.942l29.138-29.138c43.786-43.786,46.699-118.363,6.379-162.936 c-1.418-1.576-2.836-2.994-4.253-4.41C457.145,12.866,429.03,0.816,398.79,0.029c-17.247-0.393-34.572,3.229-50.48,10.316 c-12.363,5.592-23.782,13.074-33.626,22.602l-1.418,1.418L101.739,245.418c-15.514,15.986-24.018,36.935-24.019,59.143v113.874 c0,4.725,1.89,8.821,4.883,11.813s7.088,4.883,11.813,4.883h113.874c22.207-0.001,43.155-8.505,59.3-24.335L413.438,264.791z"/> <path style="fill:#f72349ff;" d="M267.59,410.797c-16.144,15.828-37.092,24.334-59.3,24.335H94.416c-4.725,0-8.821-1.89-11.813-4.883 L478.486,34.365c1.417,1.417,2.834,2.834,4.253,4.41c40.32,44.573,37.406,119.151-6.379,162.936l-29.138,29.138l-33.784,33.942 L267.59,410.797z"/> <path style="fill:#f6d76fff;" d="M413.438,264.791l-150.887,2.206c-9.214-0.08-16.696-7.561-16.697-16.696 c0-9.293,7.482-16.774,16.696-16.696l184.673-2.755L413.438,264.791z"/> <g> <path style="fill:#fae8acff;" d="M329.411,200.137c-9.294,0-16.775-7.482-16.697-16.697l1.89-150.415l0.079-0.079 c9.844-9.529,21.263-17.01,33.626-22.602l-2.204,173.097C346.106,192.734,338.624,200.216,329.411,200.137z"/> <path style="fill:#fae8acff;" d="M408.018,128.437L29.355,507.1c-3.23,3.23-7.574,4.9-11.806,4.9s-8.576-1.671-11.806-4.9 c-6.571-6.46-6.571-17.151,0-23.611l378.663-378.663c6.572-6.571,17.04-6.571,23.612,0 C414.588,111.397,414.588,121.977,408.018,128.437z"/> </g> <path style="fill:#f6d76fff;" d="M408.018,128.437L29.355,507.1c-3.23,3.23-7.574,4.9-11.806,4.9s-8.576-1.671-11.806-4.9 l402.275-402.274C414.588,111.397,414.588,121.977,408.018,128.437z"/> <path style="fill:#fae8acff;" d="M251.446,333.856l-55.677-0.078c-4.646-0.079-8.821-1.89-11.813-4.883 c-3.072-3.072-4.883-7.246-4.883-11.813l-0.078-55.677c0.079-9.214,7.56-16.695,16.696-16.696c9.292,0,16.774,7.481,16.696,16.696 l0.078,38.982h38.903c9.293,0.001,16.774,7.482,16.774,16.774C268.141,326.296,260.659,333.778,251.446,333.856z"/> <path style="fill:#f6d76fff;" d="M251.446,333.856l-55.677-0.078c-4.646-0.079-8.821-1.89-11.813-4.883l28.508-28.508h38.903 c9.293,0.001,16.774,7.482,16.774,16.774C268.141,326.296,260.659,333.778,251.446,333.856z"/> </g>

</svg>